<svg width="89" height="23" viewBox="0 0 89 23" fill="none" xmlns="http://www.w3.org/2000/svg">
<path d="M23.4822 8.73713V7.35968H29.9714V8.73713H27.5524V15.2602H25.9012V8.73713H23.4822Z" fill="#8E8E8E"/>
<path d="M33.7116 15.3766C33.1054 15.3766 32.5825 15.2524 32.1422 15.004C31.7018 14.7556 31.3631 14.4042 31.126 13.9484C30.8903 13.4911 30.7732 12.9506 30.7732 12.3253C30.7732 11.7157 30.8903 11.1815 31.126 10.7221C31.3631 10.2613 31.6969 9.90211 32.1281 9.64384C32.5585 9.38628 33.0652 9.25714 33.6466 9.25714C34.1674 9.25714 34.6381 9.36864 35.058 9.59021C35.4792 9.81038 35.813 10.1449 36.06 10.5922C36.3084 11.0382 36.4326 11.5964 36.4326 12.2661V12.7177H32.3962V12.7233C32.3962 13.1658 32.5162 13.5137 32.7575 13.7677C33.0003 14.0217 33.3277 14.1488 33.7398 14.1488C34.0143 14.1488 34.2514 14.0916 34.4511 13.9766C34.6522 13.8602 34.794 13.6887 34.8773 13.4629L36.3959 13.5645C36.2809 14.1142 35.988 14.5538 35.518 14.8826C35.0474 15.2122 34.4454 15.3766 33.7116 15.3766ZM32.3962 11.6987H34.8858C34.8815 11.3473 34.7679 11.0573 34.5442 10.8293C34.3198 10.6 34.0291 10.485 33.672 10.485C33.3065 10.485 33.0073 10.6035 32.7744 10.8406C32.5409 11.0763 32.4146 11.3621 32.3962 11.6987Z" fill="#8E8E8E"/>
<path d="M42.4346 11.0241L40.9301 11.1173C40.8885 10.9274 40.7841 10.7644 40.6168 10.6289C40.451 10.492 40.2252 10.4229 39.9394 10.4229C39.6854 10.4229 39.4694 10.4765 39.293 10.5838C39.1159 10.6896 39.0291 10.8315 39.0333 11.01C39.0291 11.1511 39.0849 11.2711 39.1999 11.3685C39.3142 11.4666 39.509 11.5449 39.7842 11.6027L40.8568 11.8201C41.9971 12.0537 42.568 12.5878 42.5701 13.4233C42.5701 13.8129 42.4558 14.1544 42.2286 14.448C42.0006 14.7401 41.688 14.9673 41.2914 15.131C40.8963 15.2948 40.4425 15.3766 39.9309 15.3766C39.1462 15.3766 38.5203 15.2129 38.0539 14.8855C37.5889 14.5566 37.3179 14.1092 37.241 13.5447L38.8583 13.46C38.9091 13.7014 39.0277 13.8834 39.214 14.0076C39.4017 14.1304 39.6416 14.1911 39.9338 14.1911C40.2231 14.1911 40.4559 14.1347 40.6309 14.0217C40.8074 13.9088 40.897 13.7649 40.8991 13.5899C40.8913 13.2963 40.638 13.1002 40.1398 13L39.1124 12.7967C37.9664 12.5674 37.3948 12.0029 37.399 11.1031C37.3969 10.5316 37.6256 10.0806 38.0849 9.7511C38.5436 9.42227 39.1526 9.25714 39.9112 9.25714C40.6599 9.25714 41.2498 9.41521 41.681 9.73134C42.1114 10.0475 42.3626 10.4786 42.4346 11.0241Z" fill="#8E8E8E"/>
<path d="M46.7582 9.33604V10.5695H45.6433V13.4402C45.6433 13.666 45.6941 13.8198 45.7957 13.9002C45.8987 13.9793 46.0335 14.0188 46.1994 14.0188C46.2763 14.0188 46.3532 14.0124 46.4308 13.999C46.5077 13.9842 46.567 13.9729 46.6086 13.9652L46.8655 15.1874C46.7843 15.2142 46.6686 15.2438 46.5183 15.2777C46.3694 15.313 46.1888 15.3348 45.9764 15.3426C45.378 15.3666 44.8981 15.2375 44.5368 14.9531C44.1755 14.6694 43.9963 14.2361 44.0005 13.6547V10.5695H43.1904V9.33604H44.0005V7.91626H45.6433V9.33604H46.7582Z" fill="#8E8E8E"/>
<path d="M47.8259 15.2607V9.33603H49.4715V15.2607H47.8259ZM48.5711 8.5711C48.3298 8.5711 48.1223 8.48924 47.9473 8.32553C47.7723 8.16182 47.6848 7.96635 47.6848 7.73842C47.6848 7.50908 47.7723 7.31362 47.9473 7.15132C48.1223 6.98972 48.3298 6.90857 48.5711 6.90857C48.8153 6.90857 49.0256 6.98972 49.2006 7.15132C49.3756 7.31362 49.4631 7.50908 49.4631 7.73842C49.4631 7.96635 49.3756 8.16182 49.2006 8.32553C49.0256 8.48924 48.8153 8.5711 48.5711 8.5711Z" fill="#8E8E8E"/>
<path d="M50.78 15.2609V9.33617H52.3466V10.3805H52.4172C52.5414 10.0305 52.7474 9.75604 53.0353 9.55634C53.3246 9.35734 53.669 9.25714 54.0684 9.25714C54.4749 9.25714 54.8199 9.35876 55.1043 9.56199C55.3901 9.7638 55.5813 10.0362 55.6773 10.3805H55.7394C55.8594 10.0418 56.0788 9.77015 56.3971 9.56481C56.7146 9.36017 57.0914 9.25714 57.5261 9.25714C58.0772 9.25714 58.526 9.43356 58.8725 9.78497C59.2183 10.135 59.3919 10.6318 59.3919 11.2753V15.2609H57.7519V11.5999C57.7519 11.2711 57.6644 11.0241 57.4894 10.8604C57.3144 10.6953 57.0957 10.612 56.8346 10.612C56.5354 10.612 56.3018 10.7073 56.1346 10.8971C55.9687 11.0876 55.8862 11.336 55.8862 11.6423V15.2609H54.2914V11.5661C54.2914 11.2746 54.2081 11.0432 54.043 10.8717C53.8772 10.6988 53.6591 10.612 53.3881 10.612C53.1151 10.612 52.8864 10.7122 52.7022 10.9112C52.5174 11.1109 52.4256 11.3755 52.4256 11.7044V15.2609H50.78Z" fill="#8E8E8E"/>
<path d="M63.3662 15.3766C62.7657 15.3766 62.247 15.2489 61.8109 14.9927C61.3763 14.7373 61.0404 14.3795 60.8033 13.9201C60.5676 13.4615 60.4504 12.928 60.4504 12.3197C60.4504 11.7086 60.5676 11.173 60.8033 10.7136C61.0404 10.2549 61.3763 9.89717 61.8109 9.64102C62.247 9.38557 62.7657 9.25714 63.3662 9.25714C63.9646 9.25714 64.4819 9.38557 64.9187 9.64102C65.3548 9.89717 65.6907 10.2549 65.9263 10.7136C66.1634 11.173 66.282 11.7086 66.282 12.3197C66.282 12.928 66.1634 13.4615 65.9263 13.9201C65.6907 14.3795 65.3548 14.7373 64.9187 14.9927C64.4819 15.2489 63.9646 15.3766 63.3662 15.3766ZM63.3747 14.1036C63.7811 14.1036 64.0888 13.9342 64.2977 13.5955C64.5066 13.2554 64.611 12.8264 64.611 12.3084C64.611 11.7933 64.5066 11.3649 64.2977 11.0241C64.0888 10.6819 63.7811 10.5104 63.3747 10.5104C62.9605 10.5104 62.6472 10.6819 62.4348 11.0241C62.2238 11.3649 62.1186 11.7933 62.1186 12.3084C62.1186 12.8264 62.2238 13.2554 62.4348 13.5955C62.6472 13.9342 62.9605 14.1036 63.3747 14.1036Z" fill="#8E8E8E"/>
<path d="M68.9994 11.8342V15.2609H67.3538V9.33617H68.9203V10.3805H68.9909C69.1243 10.0362 69.3444 9.7638 69.6514 9.56199C69.9598 9.35876 70.333 9.25714 70.772 9.25714C71.3887 9.25714 71.8841 9.45684 72.2567 9.85554C72.6307 10.2528 72.8184 10.7969 72.8184 11.487V15.2609H71.1756V11.7806C71.177 11.4179 71.0839 11.1342 70.8962 10.931C70.7078 10.7263 70.4488 10.6233 70.1199 10.6233C69.7883 10.6233 69.5194 10.7298 69.3127 10.9423C69.1052 11.1554 69.0008 11.4524 68.9994 11.8342Z" fill="#8E8E8E"/>
<path d="M74.1072 15.2607V9.33603H75.7528V15.2607H74.1072ZM74.8524 8.5711C74.611 8.5711 74.4036 8.48924 74.2286 8.32553C74.0536 8.16182 73.9661 7.96635 73.9661 7.73842C73.9661 7.50908 74.0536 7.31362 74.2286 7.15132C74.4036 6.98972 74.611 6.90857 74.8524 6.90857C75.0965 6.90857 75.3068 6.98972 75.4818 7.15132C75.6568 7.31362 75.7443 7.50908 75.7443 7.73842C75.7443 7.96635 75.6568 8.16182 75.4818 8.32553C75.3068 8.48924 75.0965 8.5711 74.8524 8.5711Z" fill="#8E8E8E"/>
<path d="M78.7523 15.3738C78.1856 15.3738 77.7164 15.2263 77.3438 14.9306C76.9712 14.6336 76.7849 14.1925 76.7849 13.6068C76.7849 13.1651 76.8879 12.8179 77.0954 12.5653C77.3043 12.3133 77.5781 12.1292 77.9168 12.012C78.2555 11.8935 78.6203 11.8166 79.012 11.7806C79.5257 11.7298 79.8926 11.6761 80.1128 11.6197C80.3344 11.5632 80.4459 11.439 80.4459 11.2471V11.2245C80.4459 10.9804 80.3682 10.7912 80.2144 10.6572C80.062 10.5238 79.8454 10.4568 79.5652 10.4568C79.2695 10.4568 79.0346 10.5217 78.8595 10.6515C78.6845 10.78 78.5688 10.9423 78.5124 11.1398L76.9938 11.0156C77.1067 10.4758 77.3868 10.0475 77.8349 9.73134C78.2844 9.41521 78.8638 9.25714 79.5737 9.25714C80.014 9.25714 80.4247 9.327 80.8072 9.46602C81.191 9.60574 81.5001 9.82308 81.7358 10.118C81.9708 10.4116 82.0886 10.7941 82.0886 11.264V15.2609H80.5305V14.4395H80.4854C80.34 14.7147 80.1241 14.9391 79.8362 15.1141C79.5497 15.287 79.1884 15.3738 78.7523 15.3738ZM79.2237 14.2391C79.5828 14.2391 79.8785 14.1347 80.11 13.9258C80.3414 13.7155 80.4572 13.4544 80.4572 13.1439V12.5145C80.3929 12.5582 80.2934 12.5963 80.158 12.6302C80.0225 12.6641 79.8785 12.6937 79.7261 12.7177C79.5737 12.7424 79.4368 12.7629 79.3168 12.7798C79.0289 12.8214 78.796 12.9026 78.6196 13.0225C78.4425 13.1432 78.3543 13.3189 78.3543 13.5504C78.3543 13.7783 78.4362 13.9505 78.5999 14.0669C78.7636 14.1819 78.971 14.2391 79.2237 14.2391Z" fill="#8E8E8E"/>
<path d="M85.012 7.35968V15.2602H83.3665V7.35968H85.012Z" fill="#8E8E8E"/>
<path d="M10.7602 3.0462C6.15934 3.0462 2.42993 6.77631 2.42993 11.3765C2.42993 15.9774 6.15934 19.7068 10.7602 19.7068C15.3604 19.7068 19.0905 15.9767 19.0905 11.3765C19.0905 6.77631 15.3604 3.0462 10.7602 3.0462ZM8.71946 13.6134C8.71946 14.0636 8.35464 14.4278 7.90514 14.4278C7.45493 14.4278 7.09081 14.0636 7.09081 13.6134V10.1416C7.09081 9.69139 7.45493 9.32656 7.90514 9.32656C8.35464 9.32656 8.71946 9.69139 8.71946 10.1416V13.6134ZM14.472 13.5549C14.472 14.1914 14.1001 14.4193 13.4636 14.4193H10.5351C9.89862 14.4193 9.38278 13.9035 9.38278 13.267V10.3865C9.38278 10.3865 9.32563 9.90732 9.85628 9.45711C10.1562 9.20237 10.6015 8.71617 10.9127 8.12624C11.5308 6.95414 11.9006 6.6126 12.1821 6.70434C13.2251 7.04235 12.7036 8.58844 12.367 9.23412H13.3197C13.9555 9.23412 14.472 9.74996 14.472 10.3865V13.5549Z" fill="#FF7E33"/>
</svg>
