<svg width="21" height="21" viewBox="0 0 21 21" fill="none" xmlns="http://www.w3.org/2000/svg">
<circle cx="10.5" cy="10.5" r="10.1613" stroke="white" stroke-width="0.677419"/>
<path d="M14.1805 7.80123C14.1233 7.66329 14.0136 7.55368 13.8757 7.49639C13.8078 7.46747 13.735 7.45212 13.6612 7.45123H8.01603C7.86631 7.45123 7.72273 7.51071 7.61686 7.61658C7.51099 7.72244 7.45152 7.86603 7.45152 8.01575C7.45152 8.16547 7.51099 8.30905 7.61686 8.41492C7.72273 8.52079 7.86631 8.58027 8.01603 8.58027H12.3007L7.61523 13.2601C7.56231 13.3126 7.52032 13.375 7.49166 13.4438C7.463 13.5126 7.44824 13.5864 7.44824 13.6609C7.44824 13.7354 7.463 13.8092 7.49166 13.878C7.52032 13.9468 7.56231 14.0092 7.61523 14.0617C7.6677 14.1146 7.73014 14.1566 7.79893 14.1853C7.86772 14.2139 7.94151 14.2287 8.01603 14.2287C8.09055 14.2287 8.16434 14.2139 8.23313 14.1853C8.30192 14.1566 8.36436 14.1146 8.41684 14.0617L13.0967 9.37623V13.6609C13.0967 13.8106 13.1562 13.9542 13.262 14.0601C13.3679 14.166 13.5115 14.2254 13.6612 14.2254C13.8109 14.2254 13.9545 14.166 14.0604 14.0601C14.1662 13.9542 14.2257 13.8106 14.2257 13.6609V8.01575C14.2248 7.94198 14.2095 7.8691 14.1805 7.80123Z" fill="white"/>
</svg>
