<svg width="51" height="51" viewBox="0 0 51 51" fill="none" xmlns="http://www.w3.org/2000/svg">
<circle cx="25.526" cy="25.4737" r="25.2632" fill="#FD560B" fill-opacity="0.76"/>
<path d="M34.9999 14.9467H16.0525C15.7733 14.9467 15.5056 15.0576 15.3082 15.255C15.1108 15.4524 14.9999 15.7201 14.9999 15.9993V34.9467C14.9999 35.2258 15.1108 35.4936 15.3082 35.691C15.5056 35.8884 15.7733 35.9993 16.0525 35.9993H34.9999C35.2791 35.9993 35.5468 35.8884 35.7442 35.691C35.9416 35.4936 36.0525 35.2258 36.0525 34.9467V15.9993C36.0525 15.7201 35.9416 15.4524 35.7442 15.255C35.5468 15.0576 35.2791 14.9467 34.9999 14.9467ZM21.3157 33.894H17.1051V29.6835H21.3157V33.894ZM21.3157 27.5782H17.1051V23.3677H21.3157V27.5782ZM21.3157 21.2624H17.1051V17.0519H21.3157V21.2624ZM27.6315 33.894H23.4209V29.6835H27.6315V33.894ZM27.6315 27.5782H23.4209V23.3677H27.6315V27.5782ZM27.6315 21.2624H23.4209V17.0519H27.6315V21.2624ZM33.9472 33.894H29.7367V29.6835H33.9472V33.894ZM33.9472 27.5782H29.7367V23.3677H33.9472V27.5782ZM33.9472 21.2624H29.7367V17.0519H33.9472V21.2624Z" fill="white"/>
</svg>
