<svg width="52" height="51" viewBox="0 0 52 51" fill="none" xmlns="http://www.w3.org/2000/svg">
<circle cx="26.105" cy="25.2632" r="25.2632" fill="#FD560B" fill-opacity="0.76"/>
<path d="M34.7469 21.9161L28.2101 15.5582C27.6563 15.0317 26.9215 14.7382 26.1574 14.7382C25.3934 14.7382 24.6585 15.0317 24.1048 15.5582L17.5679 21.874C17.2775 22.1275 17.0439 22.4396 16.8825 22.7897C16.721 23.1398 16.6354 23.5201 16.6311 23.9056V32.9372C16.6422 33.7031 16.9564 34.4334 17.5049 34.968C18.0534 35.5027 18.7915 35.7982 19.5574 35.7898H32.6522C33.4181 35.7982 34.1562 35.5027 34.7047 34.968C35.2532 34.4334 35.5674 33.7031 35.5785 32.9372V23.9056C35.5777 23.5356 35.5038 23.1693 35.3611 22.8279C35.2184 22.4865 35.0096 22.1767 34.7469 21.9161ZM25.5153 17.074C25.6763 16.9268 25.8866 16.8452 26.1048 16.8452C26.323 16.8452 26.5332 16.9268 26.6943 17.074L32.4206 22.6319L26.6627 28.1898C26.5017 28.337 26.2914 28.4186 26.0732 28.4186C25.855 28.4186 25.6448 28.337 25.4837 28.1898L19.789 22.6319L25.5153 17.074ZM33.4732 32.9372C33.4597 33.1438 33.3666 33.3371 33.2134 33.4765C33.0603 33.6158 32.8591 33.6904 32.6522 33.6845H19.5574C19.3505 33.6904 19.1493 33.6158 18.9961 33.4765C18.843 33.3371 18.7499 33.1438 18.7364 32.9372V24.5793L22.9995 28.6845L21.2522 30.3687C21.0561 30.566 20.9461 30.8328 20.9461 31.1108C20.9461 31.3889 21.0561 31.6557 21.2522 31.8529C21.35 31.9556 21.4676 32.0374 21.5978 32.0935C21.728 32.1495 21.8683 32.1787 22.0101 32.1793C22.2811 32.1782 22.5412 32.0726 22.7364 31.8845L24.5995 30.0951C25.0623 30.3778 25.5941 30.5274 26.1364 30.5274C26.6787 30.5274 27.2105 30.3778 27.6732 30.0951L29.5364 31.8845C29.7315 32.0726 29.9917 32.1782 30.2627 32.1793C30.4045 32.1787 30.5447 32.1495 30.6749 32.0935C30.8052 32.0374 30.9227 31.9556 31.0206 31.8529C31.2166 31.6557 31.3267 31.3889 31.3267 31.1108C31.3267 30.8328 31.2166 30.566 31.0206 30.3687L29.2627 28.6845L33.4732 24.5793V32.9372Z" fill="white"/>
</svg>
