<svg width="51" height="51" viewBox="0 0 51 51" fill="none" xmlns="http://www.w3.org/2000/svg">
<circle cx="25.5261" cy="25.2632" r="25.2632" fill="#FD560B" fill-opacity="0.76"/>
<path d="M33.3262 26.316C33.0947 26.316 32.8526 26.2423 32.621 26.1897C32.1524 26.0849 31.6916 25.9477 31.242 25.7792C30.7537 25.6015 30.2169 25.6107 29.735 25.8051C29.2531 25.9994 28.86 26.3651 28.6315 26.8318L28.3999 27.316C27.3776 26.7362 26.4332 26.0288 25.5894 25.2107C24.7714 24.3669 24.0639 23.4225 23.4841 22.4002L23.9684 22.1792C24.4351 21.9507 24.8008 21.5576 24.9951 21.0757C25.1894 20.5937 25.1986 20.057 25.021 19.5686C24.8538 19.115 24.7167 18.6508 24.6105 18.1792C24.5578 17.9476 24.5157 17.7055 24.4841 17.4739C24.3563 16.7324 23.968 16.061 23.389 15.5805C22.8101 15.0999 22.0786 14.8419 21.3262 14.8528H18.1578C17.7128 14.8523 17.2727 14.9457 16.8664 15.1271C16.46 15.3086 16.0966 15.5738 15.7999 15.9055C15.4971 16.2462 15.2716 16.6484 15.139 17.0845C15.0063 17.5206 14.9697 17.9802 15.0315 18.4318C15.6037 22.813 17.6054 26.883 20.7262 30.0107C23.854 33.1316 27.924 35.1333 32.3052 35.7055C32.4418 35.7159 32.5791 35.7159 32.7157 35.7055C33.4919 35.7066 34.2414 35.4218 34.821 34.9055C35.1527 34.6088 35.4179 34.2454 35.5993 33.839C35.7807 33.4327 35.8742 32.9926 35.8736 32.5476V29.3897C35.8679 28.6624 35.6114 27.9593 35.1472 27.3993C34.6831 26.8392 34.0399 26.4566 33.3262 26.316ZM33.842 32.6318C33.8417 32.7787 33.8106 32.9239 33.7508 33.058C33.691 33.1922 33.6037 33.3123 33.4947 33.4107C33.3793 33.5159 33.242 33.594 33.0927 33.6395C32.9434 33.685 32.7859 33.6968 32.6315 33.6739C28.7034 33.1609 25.0528 31.3707 22.242 28.5792C19.4288 25.766 17.6231 22.1027 17.1052 18.1581C17.0823 18.0037 17.0941 17.8462 17.1396 17.6969C17.1851 17.5476 17.2632 17.4103 17.3684 17.295C17.468 17.1846 17.5898 17.0966 17.7259 17.0367C17.862 16.9768 18.0092 16.9465 18.1578 16.9476H21.3157C21.559 16.9416 21.7969 17.0202 21.9888 17.1699C22.1808 17.3196 22.3149 17.5312 22.3684 17.7686C22.3684 18.0529 22.4631 18.3476 22.5262 18.6318C22.6479 19.1832 22.8097 19.725 23.0105 20.2529L21.5368 20.9476C21.2835 21.0639 21.0866 21.2759 20.9894 21.5371C20.8841 21.7933 20.8841 22.0808 20.9894 22.3371C22.5044 25.5821 25.1128 28.1905 28.3578 29.7055C28.6141 29.8108 28.9016 29.8108 29.1578 29.7055C29.419 29.6083 29.631 29.4114 29.7473 29.1581L30.4105 27.6844C30.9535 27.8825 31.5091 28.0442 32.0736 28.1686C32.3473 28.2318 32.642 28.2844 32.9262 28.3265C33.1637 28.38 33.3753 28.5141 33.525 28.706C33.6747 28.898 33.7532 29.1358 33.7473 29.3792L33.842 32.6318ZM27.6315 14.7371C27.3894 14.7371 27.1368 14.7371 26.8947 14.7371C26.6155 14.7608 26.3572 14.8945 26.1766 15.1086C25.9959 15.3228 25.9078 15.6 25.9315 15.8792C25.9552 16.1583 26.0889 16.4167 26.3031 16.5973C26.5173 16.7779 26.7944 16.8661 27.0736 16.8423H27.6315C29.3066 16.8423 30.913 17.5077 32.0974 18.6922C33.2819 19.8766 33.9473 21.4831 33.9473 23.1581C33.9473 23.3476 33.9473 23.5265 33.9473 23.716C33.924 23.9937 34.0117 24.2693 34.1913 24.4824C34.3708 24.6955 34.6276 24.8287 34.9052 24.8528H34.9894C35.2529 24.8539 35.5072 24.7561 35.7021 24.5788C35.897 24.4014 36.0183 24.1574 36.042 23.895C36.042 23.6529 36.042 23.4002 36.042 23.1581C36.042 20.9265 35.1563 18.7862 33.5793 17.2072C32.0023 15.6283 29.8631 14.7399 27.6315 14.7371ZM29.7368 23.1581C29.7368 23.4373 29.8477 23.705 30.0451 23.9024C30.2425 24.0998 30.5102 24.2107 30.7894 24.2107C31.0686 24.2107 31.3363 24.0998 31.5337 23.9024C31.7311 23.705 31.842 23.4373 31.842 23.1581C31.842 22.0414 31.3984 20.9704 30.6088 20.1808C29.8192 19.3912 28.7482 18.9476 27.6315 18.9476C27.3523 18.9476 27.0846 19.0585 26.8872 19.2559C26.6898 19.4533 26.5789 19.721 26.5789 20.0002C26.5789 20.2794 26.6898 20.5471 26.8872 20.7445C27.0846 20.9419 27.3523 21.0529 27.6315 21.0529C28.1899 21.0529 28.7253 21.2747 29.1202 21.6695C29.515 22.0643 29.7368 22.5998 29.7368 23.1581Z" fill="white"/>
</svg>
