<svg width="52" height="51" viewBox="0 0 52 51" fill="none" xmlns="http://www.w3.org/2000/svg">
<circle cx="26.105" cy="25.4732" r="25.2632" fill="#FD560B" fill-opacity="0.76"/>
<path d="M32.4205 17.5568C30.7455 15.8817 28.4736 14.9407 26.1047 14.9407C23.7358 14.9407 21.464 15.8817 19.7889 17.5568C18.1139 19.2318 17.1729 21.5037 17.1729 23.8726C17.1729 26.2414 18.1139 28.5133 19.7889 30.1883L25.3363 35.7462C25.4342 35.8449 25.5506 35.9232 25.6789 35.9766C25.8071 36.0301 25.9447 36.0576 26.0837 36.0576C26.2226 36.0576 26.3602 36.0301 26.4885 35.9766C26.6168 35.9232 26.7332 35.8449 26.831 35.7462L32.4205 30.1357C34.0886 28.4676 35.0257 26.2052 35.0257 23.8462C35.0257 21.4872 34.0886 19.2248 32.4205 17.5568ZM30.9153 28.6304L26.1047 33.462L21.2942 28.6304C20.3438 27.6792 19.6968 26.4675 19.4349 25.1486C19.1731 23.8297 19.3081 22.4628 19.8229 21.2206C20.3378 19.9785 21.2094 18.9168 22.3275 18.1699C23.4456 17.423 24.7601 17.0243 26.1047 17.0243C27.4494 17.0243 28.7638 17.423 29.882 18.1699C31.0001 18.9168 31.8717 19.9785 32.3865 21.2206C32.9014 22.4628 33.0364 23.8297 32.7745 25.1486C32.5126 26.4675 31.8656 27.6792 30.9153 28.6304ZM22.9468 20.641C22.0971 21.4934 21.6199 22.6479 21.6199 23.8515C21.6199 25.0551 22.0971 26.2096 22.9468 27.062C23.5782 27.6944 24.3822 28.1263 25.258 28.3035C26.1339 28.4807 27.0426 28.3953 27.8701 28.058C28.6976 27.7207 29.407 27.1465 29.9094 26.4075C30.4119 25.6686 30.6849 24.7977 30.6942 23.9041C30.6989 23.3075 30.584 22.716 30.3562 22.1645C30.1284 21.6131 29.7923 21.1129 29.3679 20.6936C28.9507 20.2668 28.4532 19.9268 27.9041 19.693C27.355 19.4593 26.7651 19.3364 26.1683 19.3315C25.5715 19.3266 24.9797 19.4398 24.4268 19.6645C23.8739 19.8893 23.371 20.2211 22.9468 20.641ZM27.8837 25.5673C27.4848 25.9723 26.9576 26.2261 26.3922 26.2854C25.8269 26.3448 25.2585 26.2059 24.7842 25.8925C24.3099 25.5791 23.9593 25.1107 23.7921 24.5674C23.625 24.024 23.6517 23.4395 23.8678 22.9138C24.084 22.388 24.476 21.9536 24.9769 21.6849C25.4779 21.4162 26.0566 21.3298 26.6141 21.4406C27.1717 21.5513 27.6735 21.8523 28.0337 22.2921C28.3939 22.7318 28.5902 23.283 28.5889 23.8515C28.5736 24.5013 28.301 25.1184 27.831 25.5673H27.8837Z" fill="white"/>
</svg>
