<svg width="25" height="24" viewBox="0 0 25 24" fill="none" xmlns="http://www.w3.org/2000/svg">
<path fill-rule="evenodd" clip-rule="evenodd" d="M14.1348 20.7272V12.766H16.8582L17.2668 9.66243H14.1348V7.68126C14.1348 6.78299 14.3881 6.17083 15.7029 6.17083L17.377 6.17015V3.39421C17.0875 3.35731 16.0937 3.27271 14.937 3.27271C12.5216 3.27271 10.868 4.71878 10.868 7.37389V9.66243H8.13635V12.766H10.868V20.7272H14.1348Z" fill="rgba(253, 86, 11, 0.76)"/>
<mask id="mask0_99_931" style="mask-type:luminance" maskUnits="userSpaceOnUse" x="8" y="3" width="10" height="18">
<path fill-rule="evenodd" clip-rule="evenodd" d="M14.1348 20.7272V12.766H16.8582L17.2668 9.66243H14.1348V7.68126C14.1348 6.78299 14.3881 6.17083 15.7029 6.17083L17.377 6.17015V3.39421C17.0875 3.35731 16.0937 3.27271 14.937 3.27271C12.5216 3.27271 10.868 4.71878 10.868 7.37389V9.66243H8.13635V12.766H10.868V20.7272H14.1348Z" fill="white"/>
</mask>
<g mask="url(#mask0_99_931)">
</g>
</svg>
