<svg width="25" height="24" viewBox="0 0 25 24" fill="none" xmlns="http://www.w3.org/2000/svg">
<path fill-rule="evenodd" clip-rule="evenodd" d="M8.10063 2.18176H16.8991C19.8873 2.18176 22.3183 4.61276 22.3182 7.60069V16.3992C22.3182 19.3871 19.8873 21.8181 16.8991 21.8181H8.10063C5.1127 21.8181 2.68182 19.3872 2.68182 16.3992V7.60069C2.68182 4.61276 5.1127 2.18176 8.10063 2.18176ZM16.8993 20.0759C18.9266 20.0759 20.5761 18.4266 20.5761 16.3992H20.576V7.60069C20.576 5.57343 18.9265 3.924 16.8991 3.924H8.10063C6.07337 3.924 4.42406 5.57343 4.42406 7.60069V16.3992C4.42406 18.4266 6.07337 20.076 8.10063 20.0759H16.8993ZM7.35715 12.0001C7.35715 9.16418 9.66419 6.85709 12.5 6.85709C15.3358 6.85709 17.6429 9.16418 17.6429 12.0001C17.6429 14.8358 15.3358 17.1428 12.5 17.1428C9.66419 17.1428 7.35715 14.8358 7.35715 12.0001ZM9.12799 11.9999C9.12799 13.8592 10.6407 15.3718 12.5 15.3718C14.3593 15.3718 15.872 13.8592 15.872 11.9999C15.872 10.1405 14.3594 8.62784 12.5 8.62784C10.6406 8.62784 9.12799 10.1405 9.12799 11.9999Z" fill="rgba(253, 86, 11, 0.76)"/>
<mask id="mask0_99_933" style="mask-type:luminance" maskUnits="userSpaceOnUse" x="2" y="2" width="21" height="20">
<path fill-rule="evenodd" clip-rule="evenodd" d="M8.10063 2.18176H16.8991C19.8873 2.18176 22.3183 4.61276 22.3182 7.60069V16.3992C22.3182 19.3871 19.8873 21.8181 16.8991 21.8181H8.10063C5.1127 21.8181 2.68182 19.3872 2.68182 16.3992V7.60069C2.68182 4.61276 5.1127 2.18176 8.10063 2.18176ZM16.8993 20.0759C18.9266 20.0759 20.5761 18.4266 20.5761 16.3992H20.576V7.60069C20.576 5.57343 18.9265 3.924 16.8991 3.924H8.10063C6.07337 3.924 4.42406 5.57343 4.42406 7.60069V16.3992C4.42406 18.4266 6.07337 20.076 8.10063 20.0759H16.8993ZM7.35715 12.0001C7.35715 9.16418 9.66419 6.85709 12.5 6.85709C15.3358 6.85709 17.6429 9.16418 17.6429 12.0001C17.6429 14.8358 15.3358 17.1428 12.5 17.1428C9.66419 17.1428 7.35715 14.8358 7.35715 12.0001ZM9.12799 11.9999C9.12799 13.8592 10.6407 15.3718 12.5 15.3718C14.3593 15.3718 15.872 13.8592 15.872 11.9999C15.872 10.1405 14.3594 8.62784 12.5 8.62784C10.6406 8.62784 9.12799 10.1405 9.12799 11.9999Z" fill="white"/>
</mask>
<g mask="url(#mask0_99_933)">
</g>
</svg>
