<svg width="25" height="24" viewBox="0 0 25 24" fill="none" xmlns="http://www.w3.org/2000/svg">
<path d="M19.7 3H5.3C4.31 3 3.5 3.81 3.5 4.8V19.2C3.5 20.19 4.31 21 5.3 21H19.7C20.69 21 21.5 20.19 21.5 19.2V4.8C21.5 3.81 20.69 3 19.7 3ZM8.9 18.3H6.2V10.2H8.9V18.3ZM7.55 8.67C6.65 8.67 5.93 7.95 5.93 7.05C5.93 6.15 6.65 5.43 7.55 5.43C8.45 5.43 9.17 6.15 9.17 7.05C9.17 7.95 8.45 8.67 7.55 8.67ZM18.8 18.3H16.1V13.53C16.1 12.81 15.47 12.18 14.75 12.18C14.03 12.18 13.4 12.81 13.4 13.53V18.3H10.7V10.2H13.4V11.28C13.85 10.56 14.84 10.02 15.65 10.02C17.36 10.02 18.8 11.46 18.8 13.17V18.3Z" fill="#D9D9D9"/>
</svg>
