<svg width="210" height="53" viewBox="0 0 210 53" fill="none" xmlns="http://www.w3.org/2000/svg">
<g clip-path="url(#clip0_99_407)">
<path d="M158.356 9.15723L37.3779 10.5447L153.791 12.0709L147.942 48.5618L67.6228 50.9205H151.365L158.356 9.15723Z" fill="#FD560B"/>
<path d="M160.353 2.35872L161.067 0L164.063 4.02371L162.065 13.0423C163.159 13.6436 165.29 15.5121 165.061 18.1761C164.833 20.84 161.257 41.7633 159.497 51.892H153.791L160.353 18.1761L160.496 17.4823L159.497 16.7885C159.402 16.0948 159.326 14.3744 159.782 13.0423C160.239 11.7104 161.495 7.39994 162.065 5.41119C161.922 4.6712 161.381 3.02472 160.353 2.35872Z" fill="#FD560B"/>
<path d="M165.489 51.8922H161.638L167.344 24.2812L165.489 51.8922Z" fill="#FD560B"/>
<path d="M167.771 51.8916H186.318C187.649 47.9141 192.167 41.4021 199.585 47.1741C200.584 47.7291 199.585 43.8442 195.163 43.1504C192.738 43.1504 189.599 43.7669 188.03 45.3704C186.461 46.9739 184.891 49.2553 184.463 49.3941C184.121 49.5051 172.812 50.4578 167.201 50.9203V51.8916H167.771Z" fill="#FD560B"/>
<path d="M165.062 14.291L169.484 14.7073C171.624 15.3086 176.189 16.7052 177.33 17.4822C178.757 18.4535 182.181 20.2572 182.609 20.951C183.037 21.6447 184.035 24.9747 186.318 25.6684C188.144 26.2234 189.077 26.4546 189.314 26.5009C189.79 27.1022 190.798 28.5822 191.026 29.6921C191.254 30.8021 191.502 33.3921 191.597 34.5483C192.405 34.9646 194.65 35.8803 197.161 36.2133C200.299 36.6296 206.719 39.5433 207.29 39.8207C207.86 40.0983 209.002 40.792 209.857 41.902C209.905 42.642 210 44.233 210 44.6769C210 45.116 209.721 49.3906 209.577 51.5428C209.761 48.7414 209.641 43.0599 207.718 42.1795C205.15 40.3758 204.151 39.5433 197.161 37.8783C196.704 37.6563 183.37 36.6758 176.76 36.2133C176.189 35.242 175.134 32.5781 175.476 29.6921C175.476 29.4146 177.045 34.5483 177.758 34.8258C178.329 35.0478 185.32 34.9183 188.743 34.8258V28.0271C188.601 27.7034 187.83 27.0004 185.89 26.7784C183.465 26.5009 183.037 26.5009 182.609 26.0846C182.181 25.6684 179.756 22.061 176.475 20.5347C173.849 19.3137 169.579 19.286 167.772 19.4247C167.724 18.1297 167.115 15.2901 165.062 14.291Z" fill="#FD560B"/>
<path d="M0 41.8737V36.7801L2.66276 36.7629C4.15579 36.7629 5.28438 36.4713 6.04852 35.8883C6.81269 35.3051 7.27113 34.6363 7.42399 33.8817C7.57679 33.127 7.65322 31.7607 7.65322 29.7827V17.8633H12.9435V29.6456C12.9435 32.6297 12.7965 34.7449 12.5026 35.9911C12.2205 37.226 11.6973 38.2664 10.9332 39.1125C10.1691 39.9586 9.1404 40.6389 7.84722 41.1534C6.56579 41.6565 4.89054 41.908 2.82147 41.908L0 41.8737ZM36.6252 40.4434L32.6289 42.6821L30.6467 40.5989C29.0801 41.656 27.162 42.309 24.86 42.309C20.2563 42.309 16.8674 39.8527 16.8674 35.7483C16.8674 33.2609 18.1462 30.9289 20.4481 29.4986C19.8726 28.5347 19.521 27.4465 19.521 26.0473C19.521 22.3782 22.4303 19.6731 26.7144 19.6731C29.9434 19.6731 32.6928 21.2278 34.0675 24.4304L29.6876 26.8868C29.1121 25.4254 28.217 24.5237 26.7783 24.5237C25.4995 24.5237 24.6362 25.301 24.6362 26.3582C24.6362 27.5708 25.4035 28.3792 26.3946 29.4364L30.5188 33.8828C30.9664 32.8878 31.3181 31.7373 31.5739 30.4625L35.8579 32.8256C35.4423 34.3491 34.7709 35.966 33.8118 37.3963L36.6252 40.4434ZM25.2756 37.7694C26.1069 37.7694 26.8422 37.6139 27.5136 37.2719L23.4214 32.981L23.2296 32.7945C22.3983 33.4475 22.0466 34.3491 22.0466 35.2198C22.0466 36.6811 23.0057 37.7694 25.2756 37.7694ZM37.2561 41.8737V36.7801L39.9189 36.7629C41.4119 36.7629 42.5405 36.4713 43.3046 35.8883C44.0688 35.3051 44.5272 34.6363 44.6801 33.8817C44.8329 33.127 44.9093 31.7607 44.9093 29.7827V17.8633H50.1996V29.6456C50.1996 32.6297 50.0526 34.7449 49.7587 35.9911C49.4766 37.226 48.9534 38.2664 48.1893 39.1125C47.4252 39.9586 46.3965 40.6389 45.1033 41.1534C43.8219 41.6565 42.1467 41.908 40.0775 41.908L37.2561 41.8737Z" fill="#FD560B"/>
<path d="M66.6881 36.7282H70.9553L66.8639 31.8404C66.3939 31.1659 66.1589 30.5713 66.1589 30.0568V29.6109C66.1944 29.1192 66.4294 28.559 66.8639 27.9301L70.9553 23.0423H64.6775V41.8562H59.1228V17.8629H71.925C75.2876 17.8629 76.9683 19.3436 76.9683 22.3048C76.9683 23.1395 76.4923 24.2485 75.5404 25.632L72.1718 29.8853L75.5404 34.1386C76.4923 35.522 76.9683 36.6311 76.9683 37.4657C76.9683 40.3927 75.2876 41.8562 71.925 41.8562H66.6881V36.7282ZM85.1681 22.8365V41.8734H79.6311L79.614 17.8458H92.557C94.391 17.8229 95.8841 18.3431 97.0361 19.4064C98.2 20.4812 98.7701 21.9618 98.747 23.8484C98.7233 25.6206 98.0591 27.147 96.7543 28.4275L94.5852 30.9143C94.2087 31.4059 94.156 31.9662 94.4266 32.595L99.7516 41.8734H92.9803L88.8718 34.0528C87.8962 32.1091 87.8962 30.5656 88.8718 29.4222L92.9276 24.6888C93.2686 24.3 93.4391 23.8941 93.4391 23.4711C93.4391 23.048 93.1626 22.8365 92.6103 22.8365H85.1681ZM113.401 17.6914C119.314 17.6914 122.271 21.7503 122.271 29.8681C122.271 37.9859 119.314 42.0449 113.401 42.0449H109.504C103.59 42.0449 100.634 37.9859 100.634 29.8681C100.634 21.7503 103.59 17.6914 109.504 17.6914H113.401ZM111.761 22.8708H111.144C107.934 22.8936 106.329 24.7688 106.329 28.4961V31.4116C106.329 35.0818 107.987 36.9169 111.302 36.9169H111.602C114.917 36.9169 116.575 35.0818 116.575 31.4116V28.4961C116.575 24.7688 114.97 22.8936 111.761 22.8708ZM125.833 41.8734V36.6597H135.796C136.925 36.6597 137.489 36.1165 137.489 35.0304C137.489 33.9442 137.113 33.2982 136.361 33.0924L130.1 31.8747C129.113 31.6346 128.284 31.2916 127.614 30.8457C126.626 30.2054 125.85 29.365 125.286 28.3246C124.722 27.2956 124.434 26.1808 124.422 24.9803C124.41 23.8484 124.663 22.7794 125.181 21.7732C125.709 20.767 126.444 19.9209 127.385 19.2349C128.219 18.6632 129.325 18.2631 130.7 18.0344C131.17 17.9544 131.646 17.8915 132.128 17.8458H141.844V23.0595H132.358C131.217 23.0595 130.647 23.5797 130.647 24.6201C130.647 25.672 131.023 26.3238 131.776 26.5752L139.817 28.3761C142.297 29.2907 143.578 31.143 143.661 33.9327C143.814 35.2705 143.638 36.5282 143.132 37.7058C142.638 38.8949 141.874 39.8439 140.84 40.5528C139.97 41.1473 138.97 41.5418 137.842 41.7361C137.407 41.8276 136.919 41.8734 136.378 41.8734H125.833Z" fill="white"/>
</g>
<defs>
<clipPath id="clip0_99_407">
<rect width="210" height="52.5" fill="white"/>
</clipPath>
</defs>
</svg>
