<svg width="22" height="18" viewBox="0 0 22 18" fill="none" xmlns="http://www.w3.org/2000/svg">
<path d="M18.6579 0.473755H3.92108C3.08355 0.473755 2.28033 0.806461 1.68811 1.39868C1.09589 1.9909 0.763184 2.79412 0.763184 3.63165V14.158C0.763184 14.9955 1.09589 15.7987 1.68811 16.3909C2.28033 16.9832 3.08355 17.3159 3.92108 17.3159H18.6579C19.4954 17.3159 20.2987 16.9832 20.8909 16.3909C21.4831 15.7987 21.8158 14.9955 21.8158 14.158V3.63165C21.8158 2.79412 21.4831 1.9909 20.8909 1.39868C20.2987 0.806461 19.4954 0.473755 18.6579 0.473755V0.473755ZM18.2263 2.57902L12.0369 8.76849C11.939 8.86715 11.8226 8.94546 11.6943 8.9989C11.566 9.05234 11.4285 9.07986 11.2895 9.07986C11.1505 9.07986 11.013 9.05234 10.8847 8.9989C10.7564 8.94546 10.64 8.86715 10.5421 8.76849L4.35266 2.57902H18.2263ZM19.7106 14.158C19.7106 14.4371 19.5997 14.7049 19.4022 14.9023C19.2048 15.0997 18.9371 15.2106 18.6579 15.2106H3.92108C3.6419 15.2106 3.37416 15.0997 3.17676 14.9023C2.97935 14.7049 2.86845 14.4371 2.86845 14.158V4.06323L9.05792 10.2527C9.65003 10.8441 10.4527 11.1762 11.2895 11.1762C12.1263 11.1762 12.929 10.8441 13.5211 10.2527L19.7106 4.06323V14.158Z" fill="#F0FDF4"/>
</svg>
