<svg width="24" height="24" viewBox="0 0 24 24" fill="none" xmlns="http://www.w3.org/2000/svg">
<path d="M20.3467 4.00255C20.3467 4.00255 22.2085 3.27661 22.0533 5.03961C22.0016 5.76555 21.5362 8.30633 21.1742 11.0545L19.933 19.1954C19.933 19.1954 19.8296 20.388 18.8988 20.5955C17.9679 20.8029 16.5716 19.8695 16.313 19.6621C16.1062 19.5066 12.4345 17.1732 11.1416 16.0324C10.7796 15.7213 10.3659 15.099 11.1933 14.3731L16.6233 9.18786C17.2439 8.56561 17.8645 7.11374 15.2787 8.87673L8.03878 13.8028C8.03878 13.8028 7.21135 14.3213 5.65996 13.8546L2.29851 12.8175C2.29851 12.8175 1.05737 12.0398 3.17766 11.2619C8.34909 8.82484 14.7099 6.3359 20.3467 4.00255Z" fill="#D9D9D9"/>
</svg>
