<svg width="25" height="24" viewBox="0 0 25 24" fill="none" xmlns="http://www.w3.org/2000/svg">
<path fill-rule="evenodd" clip-rule="evenodd" d="M22.3181 6.14598C21.6356 6.44844 20.9032 6.65356 20.1337 6.74513C20.9194 6.27462 21.5208 5.52831 21.8059 4.64177C21.0689 5.0775 20.2553 5.39389 19.3885 5.56541C18.6943 4.82489 17.707 4.36365 16.6118 4.36365C14.5108 4.36365 12.8072 6.06719 12.8072 8.16707C12.8072 8.46489 12.8408 8.75577 12.9058 9.03392C9.74436 8.87513 6.94105 7.3605 5.06484 5.05895C4.73687 5.61986 4.5503 6.27344 4.5503 6.9711C4.5503 8.29107 5.22245 9.45574 6.24227 10.1371C5.61878 10.1163 5.03239 9.94477 4.51902 9.65968V9.70719C4.51902 11.5498 5.83087 13.0876 7.57033 13.4376C7.25163 13.5234 6.91557 13.5709 6.5679 13.5709C6.32224 13.5709 6.08466 13.5466 5.85172 13.5002C6.33611 15.0125 7.74069 16.1123 9.40484 16.1424C8.10342 17.1623 6.46245 17.7683 4.68011 17.7683C4.37302 17.7683 4.07054 17.7498 3.77272 17.7162C5.45657 18.7974 7.45563 19.4279 9.60418 19.4279C16.6026 19.4279 20.4281 13.6312 20.4281 8.60398L20.4153 8.11147C21.1628 7.57834 21.8094 6.90853 22.3181 6.14598Z" fill="#D9D9D9"/>
<mask id="mask0_99_932" style="mask-type:luminance" maskUnits="userSpaceOnUse" x="3" y="4" width="20" height="16">
<path fill-rule="evenodd" clip-rule="evenodd" d="M22.3181 6.14598C21.6356 6.44844 20.9032 6.65356 20.1337 6.74513C20.9194 6.27462 21.5208 5.52831 21.8059 4.64177C21.0689 5.0775 20.2553 5.39389 19.3885 5.56541C18.6943 4.82489 17.707 4.36365 16.6118 4.36365C14.5108 4.36365 12.8072 6.06719 12.8072 8.16707C12.8072 8.46489 12.8408 8.75577 12.9058 9.03392C9.74436 8.87513 6.94105 7.3605 5.06484 5.05895C4.73687 5.61986 4.5503 6.27344 4.5503 6.9711C4.5503 8.29107 5.22245 9.45574 6.24227 10.1371C5.61878 10.1163 5.03239 9.94477 4.51902 9.65968V9.70719C4.51902 11.5498 5.83087 13.0876 7.57033 13.4376C7.25163 13.5234 6.91557 13.5709 6.5679 13.5709C6.32224 13.5709 6.08466 13.5466 5.85172 13.5002C6.33611 15.0125 7.74069 16.1123 9.40484 16.1424C8.10342 17.1623 6.46245 17.7683 4.68011 17.7683C4.37302 17.7683 4.07054 17.7498 3.77272 17.7162C5.45657 18.7974 7.45563 19.4279 9.60418 19.4279C16.6026 19.4279 20.4281 13.6312 20.4281 8.60398L20.4153 8.11147C21.1628 7.57834 21.8094 6.90853 22.3181 6.14598Z" fill="white"/>
</mask>
<g mask="url(#mask0_99_932)">
</g>
</svg>
